<?xml version="1.0" encoding="iso-8859-1"?>
<!-- Generator: Adobe Illustrator 19.0.0, SVG Export Plug-In . SVG Version: 6.00 Build 0)  -->
<svg version="1.1" id="Capa_1" xmlns="http://www.w3.org/2000/svg" xmlns:xlink="http://www.w3.org/1999/xlink" x="0px" y="0px"
	 width="40px" height="20px" viewBox="0 0 298 298" style="enable-background:new 0 0 298 298;fill:#7e8c99" xml:space="preserve">
<g>
	<path d="M267.333,83H215V8c0-4.418-3.249-8-7.667-8h-114C88.915,0,85,3.582,85,8v75H31.333C26.915,83,23,86.582,23,91v34
		c0,4.418,3.915,8,8.333,8H43v157c0,4.418,3.915,8,8.333,8h198c4.418,0,7.667-3.582,7.667-8V133h10.333c4.418,0,7.667-3.582,7.667-8
		V91C275,86.582,271.751,83,267.333,83z M259,117H39V99h220V117z M101.803,240.475c0.038-2.643,3.595-10.924,8.529-20.316
		c4.936,9.392,8.493,17.672,8.531,20.313c0,4.703-3.827,8.529-8.531,8.529C105.629,249.001,101.803,245.175,101.803,240.475z
		 M136.811,236.48c0-3.466,4.645-14.882,12.521-29.377c7.877,14.495,12.522,25.911,12.522,29.377
		c0,6.904-5.617,12.521-12.522,12.521C142.428,249.001,136.811,243.385,136.811,236.48z M179.803,240.475
		c0.038-2.643,3.595-10.924,8.529-20.316c4.936,9.392,8.493,17.672,8.531,20.313c0,4.703-3.827,8.529-8.531,8.529
		C183.629,249.001,179.803,245.175,179.803,240.475z M195.189,199.717c-1.446-2.407-4.049-3.879-6.857-3.879
		c-2.809,0-5.41,1.473-6.857,3.879c-1.905,3.171-5.793,9.815-9.438,17.09c-5.29-11.988-12.73-24.74-15.849-29.928
		c-1.446-2.407-4.049-3.879-6.856-3.879c-2.809,0-5.41,1.473-6.857,3.879c-3.117,5.188-10.557,17.94-15.847,29.929
		c-3.646-7.275-7.533-13.92-9.439-17.091c-1.446-2.407-4.049-3.879-6.856-3.879c-2.809,0-5.41,1.473-6.857,3.879
		c-2.195,3.654-7.022,11.917-11.078,20.446c1.314-30.64,26.568-55.162,57.436-55.162c31.63,0,57.372,25.746,57.495,57.439
		C203.09,213.139,197.58,203.695,195.189,199.717z"/>
</g>
<g>
</g>
<g>
</g>
<g>
</g>
<g>
</g>
<g>
</g>
<g>
</g>
<g>
</g>
<g>
</g>
<g>
</g>
<g>
</g>
<g>
</g>
<g>
</g>
<g>
</g>
<g>
</g>
<g>
</g>
</svg>
