<?xml version="1.0" encoding="iso-8859-1"?>
<!-- Generator: Adobe Illustrator 16.0.0, SVG Export Plug-In . SVG Version: 6.00 Build 0)  -->
<!DOCTYPE svg PUBLIC "-//W3C//DTD SVG 1.1//EN" "http://www.w3.org/Graphics/SVG/1.1/DTD/svg11.dtd">
<svg version="1.1" id="Capa_1" xmlns="http://www.w3.org/2000/svg" xmlns:xlink="http://www.w3.org/1999/xlink" x="0px" y="0px"
	 width="40px" height="20px" viewBox="0 0 572.602 572.602" style="enable-background:new 0 0 64 64;fill:#7e8c99"
	 xml:space="preserve">
<g>
	<path d="M286.31,229.713c-18.335,0-38.678-0.889-59.988-2.583L75.17,545.195l420.995,5.03L350.644,226.771
		C327.755,228.697,305.891,229.713,286.31,229.713z M354.748,384.46c0.155,2.464-1.187,4.79-3.414,5.879l-13.848,6.802l31.016,63.17
		c1.489,3.036,0.237,6.704-2.799,8.188l-21.971,10.792c-1.444,0.723-3.121,0.832-4.676,0.298c-1.538-0.522-2.799-1.641-3.513-3.093
		l-4.717-9.612c-3.378-6.866-10.229-11.135-17.878-11.135c-3.04,0-5.994,0.686-8.752,2.04l-2.737,1.347
		c-4.774,2.346-8.348,6.401-10.065,11.433c-1.714,5.026-1.371,10.424,0.971,15.189l4.717,9.621c1.489,3.035,0.24,6.703-2.795,8.188
		l-21.976,10.787c-0.869,0.429-1.787,0.633-2.688,0.633c-2.265,0-4.439-1.253-5.496-3.424l-31.016-63.175l-13.855,6.802
		c-2.203,1.094-4.872,0.747-6.744-0.901c-1.856-1.637-2.546-4.228-1.747-6.573l33.611-98.459c1.089-3.198,4.557-4.908,7.772-3.814
		l98.467,33.611C352.961,379.857,354.59,381.983,354.748,384.46z M564.477,145.727c-16.405-7.74-36.94-14.741-59.425-20.894
		c-11.824-3.24-21.946-6.605-21.886-7.993c0.029-0.841-1.016-1.685-1.016-2.53V76.538c0-29.197-17.731-54.162-42.244-54.162H132.71
		c-24.509,0.004-42.24,24.97-42.24,54.166v37.772c0,0.849-1.053,1.689-1.016,2.53c0.061,1.396-10.061,4.761-21.885,7.993
		c-22.48,6.148-43.011,13.15-59.417,20.89c-16.822,7.936-4.088,20.502,6.695,25.166c17.222,7.45,36.622,11.914,54.713,16.756
		c36.847,9.866,74.395,17.116,112.253,21.755c34.896,4.276,70.062,6.332,105.215,6.173c41.155-0.188,82.294-3.411,122.968-9.669
		c33.562-5.166,66.81-12.399,99.47-21.702c16.985-4.839,34.509-9.625,50.865-16.353
		C570.825,163.544,579.643,152.875,564.477,145.727z M181.536,116.962c-14.965,0-27.099-12.129-27.099-27.099
		s12.129-27.1,27.099-27.1s27.1,12.13,27.1,27.1S196.509,116.962,181.536,116.962z M285.666,116.962
		c-14.961,0-27.095-12.129-27.095-27.099s12.13-27.1,27.095-27.1s27.1,12.13,27.1,27.1S300.631,116.962,285.666,116.962z
		 M391.081,116.962c-14.962,0-27.096-12.129-27.096-27.099s12.13-27.1,27.096-27.1c14.965,0,27.1,12.13,27.1,27.1
		S406.042,116.962,391.081,116.962z"/>
</g>
<g>
</g>
<g>
</g>
<g>
</g>
<g>
</g>
<g>
</g>
<g>
</g>
<g>
</g>
<g>
</g>
<g>
</g>
<g>
</g>
<g>
</g>
<g>
</g>
<g>
</g>
<g>
</g>
<g>
</g>
</svg>
